#!OML:ASF F:\VICON\USERDATA\INSTALL\rory3\rory3.ASF
:FULLY-SPECIFIED
:DEGREES
81
root 0.43934050423713855 17.85453241377405 36.636565763783075 -2.1299019843413323 -3.835131540529486 -8.190863565326985
lfemur -29.535614388052753 -0.46074541562432125 -9.76371494287577
ltibia 44.21707596838648
lfoot -7.173491572601963 4.698661443496872
ltoes -6.517555846461928
rfemur 1.0162162067664902 6.7856020107785815 35.86533741655074
rtibia 23.841290879949455
rfoot -21.42810051106249 -8.477852351811983
rtoes 11.580117847884685
lowerback 9.949288821654305 1.6291955140511902 6.763742714208228
upperback 0.40720752570128743 3.073421603712048 2.3970244156881293
thorax -4.942715818072965 1.378579414630706 -1.9152957719221422
lowerneck -15.967141879096452 -2.909732095062275 -2.0718046727134576
upperneck 19.324376215876796 -3.713359888521949 0.9616786621674596
head 8.695394125224407 -1.7969463346775827 0.2031381618515832
lclavicle -1.172200456700094e-15 -9.736087945528321e-16
lhumerus -34.33561281469146 7.07754751722463 80.49992974334647
lradius 22.082644617651496
lwrist 4.491610476172122
lhand -30.507998247768853 19.257617139480494
lfingers 7.125020000000056
lthumb -3.8076684382750354 49.227232033962686
rclavicle -1.172200456700094e-15 -9.736087945528321e-16
rhumerus -23.02739396662419 -10.754345498759339 -82.27619359992735
rradius 29.27187802740034
rwrist -1.3579394220467442
rhand -17.682088370637345 30.068718003074036
rfingers 7.125020000000056
rthumb 8.57758671758122 -6.886353101786643
82
root 0.43473722849077323 17.770611957794166 36.5508454251217 -1.3663805045095003 -4.485091552607987 -8.723456789441544
lfemur -29.554267755097662 -3.0590499167368135 -8.261510376285106
ltibia 30.73372867490499
lfoot -6.7457120041368395 7.275358683689238
ltoes -6.638629207887701
rfemur 3.9005775516896772 6.850067992378537 36.409260283161075
rtibia 21.511464333449013
rfoot -23.357296862288095 -8.614126447920412
rtoes 8.583630433707043
lowerback 9.602650121174452 1.9157112895503952 7.301310251000544
upperback 0.32675457725456086 3.4976632366291054 2.3836829682122076
thorax -4.809602452040472 1.5775277713272007 -2.3111352925463207
lowerneck -16.30332856036939 -2.9231058343576692 -1.9728777680463128
upperneck 18.945295885272888 -3.7420718706502067 0.9157950602347499
head 8.625905711336797 -1.8051776730525826 0.1673971007303796
lclavicle -1.3485158203346502e-15 -1.1101303325844346e-15
lhumerus -35.507363444365815 9.083459584103105 79.64710325998875
lradius 20.3499693868796
lwrist 3.6223967824525314
lhand -30.50074399621894 19.628887017690058
lfingers 7.125020000000056
lthumb -3.800643677443867 49.59797520186346
rclavicle -1.3485158203346502e-15 -1.1101303325844346e-15
rhumerus -21.0917083660614 -9.490056333796103 -82.62729793636203
rradius 30.27299782978702
rwrist -2.4422169159969696
rhand -17.750602861324623 30.074373518774234
rfingers 7.125020000000056
rthumb 8.511414642234532 -6.406592445976994
83
root 0.4335221591405395 17.68823252306555 36.57108755382632 -0.7616497029978025 -5.015353438225841 -8.998895277238622
lfemur -28.908562005584844 -5.359973653483142 -7.2180388167260805
ltibia 19.20876053389137
lfoot -6.160852045979281 8.60340392998539
ltoes -6.9760886334723
rfemur 6.927470307468697 6.9146245858719055 36.6179288832615
rtibia 19.74658059223492
rfoot -24.892676299189528 -8.249707935153028
rtoes 4.304102760818953
lowerback 9.215717043553912 2.15500811361589 7.552178235793665
upperback 0.24942641231492696 3.820000749974265 2.34386398096271
thorax -4.661414167980842 1.7343160525426988 -2.5413928177906886
lowerneck -16.54292023118897 -2.9575655555805405 -1.883387230370885
upperneck 18.71409082827679 -3.807367720336215 0.9034153251332535
head 8.591073756432667 -1.8289129375850433 0.14051544413814981
lclavicle -1.4750061029240046e-15 -1.2080721168653797e-15
lhumerus -36.64475738087538 11.202831259521252 78.71399774464756
lradius 18.608302567169048
lwrist 2.4845971576970864
lhand -30.356715946308604 20.22614999715682
lfingers 7.125020000000055
lthumb -3.66152954704435 50.19569706832635
rclavicle -1.4750061029240046e-15 -1.2080721168653797e-15
rhumerus -19.55141360466156 -8.94364858409537 -82.76937265676209
rradius 31.11405500879861
rwrist -2.9244591435947123
rhand -17.7743374867405 30.021441401477343
rfingers 7.125020000000055
rthumb 8.488406587147578 -5.974204906709001
84
root 0.43575471614584427 17.61519276787688 36.768915813128096 -0.4723348549338793 -5.319173282613223 -8.919488094080938
lfemur -28.097000019110936 -6.589621719847472 -7.109225182671931
ltibia 12.296466136825167
lfoot -5.179411706604196 8.090084351019815
ltoes -7.092519586900468
rfemur 9.71421866458702 6.917441655692702 36.36516470664311
rtibia 19.490422195768637
rfoot -25.373822372588126 -7.251047723642017
rtoes -0.6503716539677029
lowerback 8.896409324142457 2.3197484610678676 7.4807194896391245
upperback 0.19487301445045718 4.007424563818858 2.249778583698527
thorax -4.538830006251302 1.831132193166876 -2.6123484840495843
lowerneck -16.633793300803113 -3.02137593799072 -1.8257132062004362
upperneck 18.671601543388764 -3.9170921828090908 0.9314790347942508
head 8.595529377965073 -1.8729263335790673 0.1279695891781002
lclavicle -1.5364693208188988e-15 -1.2556632206584864e-15
lhumerus -37.62622812842486 13.208196629202071 77.74730844213298
lradius 16.96097835626979
lwrist 1.1415972799156755
lhand -30.129903339163423 20.748276747404102
lfingers 7.125020000000055
lthumb -3.442472598428586 50.71832544660575
rclavicle -1.5364693208188988e-15 -1.2556632206584864e-15
rhumerus -18.675052264844947 -9.138664522354535 -82.72831938230362
rradius 31.78351362039344
rwrist -2.944475589402634
rhand -17.79198694828959 30.006384319585997
rfingers 7.125020000000055
rthumb 8.471267342813846 -5.638389736631068
85
root 0.44737609971371173 17.56713319776679 37.36556446765166 -0.5439089238991303 -5.315897928535412 -8.451642762119398
lfemur -27.37580756187694 -6.55426765357105 -8.019229787114295
ltibia 10.972538984503718
lfoot -3.6723385546712413 5.766454016161149
ltoes -6.7085547534683805
rfemur 11.984690119037063 6.783264248868531 35.63355319925791
rtibia 21.396669985821266
rfoot -23.717360152878808 -5.564229806986715
rtoes -5.167299662613738
lowerback 8.687357850629816 2.416836553948904 7.146936204550447
upperback 0.1618311014518206 4.0807184750335646 2.09182765046598
thorax -4.4547227418952895 1.8748153043260039 -2.5541963017361744
lowerneck -16.548687289060684 -3.1171649272843616 -1.8081012978183395
upperneck 18.84486011223102 -4.071619892545007 1.0121834193408994
head 8.644172460116362 -1.9383440627303186 0.1347774488346315
lclavicle -1.424063922619495e-15 -1.1686273587645065e-15
lhumerus -38.33202026030896 15.00126861334209 76.80869840320267
lradius 15.661549107893265
lwrist -0.21477856867036138
lhand -29.773333466109786 21.106832548060286
lfingers 7.125020000000055
lthumb -3.098110826196703 51.07678262552349
rclavicle -1.424063922619495e-15 -1.1686273587645065e-15
rhumerus -18.580716308075605 -9.890107924377308 -82.46981952179661
rradius 32.444656117084094
rwrist -2.5913796413670056
rhand -17.814880737896047 30.13999906543927
rfingers 7.125020000000055
rthumb 8.449092537631813 -5.36003134308361
86
root 0.4645441029961147 17.548082439505418 38.07832583287397 -0.9856679988003428 -5.107852908783167 -7.673250920807686
lfemur -26.980207706434378 -5.704860514836628 -9.792184295394199
ltibia 14.011655523602148
lfoot -2.0570336420850364 2.258983959451812
ltoes -5.95656522212905
rfemur 13.187156272774773 6.325300109263539 34.34643499412484
rtibia 25.570574695042772
rfoot -19.03523336718712 -3.3471889021354655
rtoes -7.817402647524961
lowerback 8.55325256653831 2.4563076024441814 6.563215231189415
upperback 0.13049289793214813 4.056782228201519 1.8590190692491229
thorax -4.441681848238505 1.8731640108175558 -2.4344392708196767
lowerneck -16.32923553793122 -3.2476546241308735 -1.8335159204191047
upperneck 19.1403923558805 -4.274985032915527 1.1149765563801632
head 8.711584891083193 -2.026726450557163 0.1521845849143744
lclavicle -1.386929864718278e-15 -1.1398743376414378e-15
lhumerus -38.955014052742484 16.49322560974492 75.84880612701252
lradius 14.229074799323378
lwrist -1.540466837698073
lhand -29.270776535896317 21.29929539002676
lfingers 7.125020000000056
lthumb -2.6127607338569176 51.26786076469437
rclavicle -1.386929864718278e-15 -1.1398743376414378e-15
rhumerus -19.341685398925996 -11.186598641222428 -82.15630322077321
rradius 32.60456311701634
rwrist -2.090857660607644
rhand -17.854680726848887 30.316691198302063
rfingers 7.125020000000056
rthumb 8.410660430922023 -5.281830135903454
87
root 0.49201166723420753 17.567043614521474 39.083360492611 -1.6641109141903851 -4.786519869713031 -6.5750394153582015
lfemur -26.286510092909403 -4.626847370718556 -12.052899752888823
ltibia 19.439054564942776
lfoot -0.6866106620800076 -1.2360348224728597
ltoes -4.729784924873078
rfemur 13.119880450603551 5.5635659987762605 32.538455924194935
rtibia 32.47131158963839
rfoot -10.715016908105273 -0.974677711908372
rtoes -7.128462044832748
lowerback 8.52215282393683 2.4861866856307007 5.794847219904104
upperback 0.10556643843580582 4.0047807134389455 1.5684300171282077
thorax -4.474763670141426 1.8589997515188408 -2.2379306855721026
lowerneck -16.04086350150667 -3.373027858014837 -1.8763367601638927
upperneck 19.547388066999048 -4.469539509797487 1.243585728363806
head 8.80588801522741 -2.1117557322450753 0.18146572218343418
lclavicle -1.1819832104691217e-15 -9.8118354837842e-16
lhumerus -39.37427874477437 17.664429307359747 75.08132425866656
lradius 13.41991845194137
lwrist -2.3778487515147937
lhand -28.613564729614467 21.745671292476523
lfingers 7.125020000000056
lthumb -1.9780535430423043 51.710637499025765
rclavicle -1.1819832104691217e-15 -9.8118354837842e-16
rhumerus -20.60088031462356 -12.602623457183672 -81.72072363815374
rradius 32.7963867218418
rwrist -1.3462808213566984
rhand -17.855080564420675 30.5464133406416
rfingers 7.125020000000056
rthumb 8.410307506087348 -5.2866813422775305
